# xmcd
#
# Track frame offsets: 
#        150
#        11556
#        25946
#        43270
#        55927
#        64801
#        78993
#        95698
#
# Disc length: 1441 seconds
#
# Revision: 0
# Processed by: cddbd v1.5.2PL0 Copyright (c) Steve Scherf et al.
# Submitted via: ExactAudioCopyFreeDBPlugin 1.0
#
DISCID=64059f08
DTITLE=Backyard Devils - Step By Step
DYEAR=2012
DGENRE=Blues
TTITLE0=One More Road
TTITLE1=Step By Step
TTITLE2=Fields On Fire
TTITLE3=Only Way To Be
TTITLE4=Second Youth
TTITLE5=Friday Night
TTITLE6=Hey You
TTITLE7=I'm Gonna Move
EXTD=
EXTT0=
EXTT1=
EXTT2=
EXTT3=
EXTT4=
EXTT5=
EXTT6=
EXTT7=
PLAYORDER=
